{"asset": {"version": "2.0", "generator": "rbxts-weather tools/leaf_meshes.py"}, "scene": 0, "scenes": [{"nodes": [0]}], "nodes": [{"mesh": 0, "name": "Leaf-curled"}], "meshes": [{"name": "Leaf-curled", "primitives": [{"attributes": {"POSITION": 0, "NORMAL": 1, "TEXCOORD_0": 2}, "indices": 3}]}], "buffers": [{"byteLength": 6720, "uri": "data:application/octet-stream;base64,"}], "bufferViews": [{"buffer": 0, "byteOffset": 0, "byteLength": 1944, "target": 34962}, {"buffer": 0, "byteOffset": 1944, "byteLength": 1944, "target": 34962}, {"buffer": 0, "byteOffset": 3888, "byteLength": 1296, "target": 34962}, {"buffer": 0, "byteOffset": 5184, "byteLength": 1536, "target": 34963}], "accessors": [{"bufferView": 0, "componentType": 5126, "count": 162, "type": "VEC3", "min": [-0.5, -0.15000000000000002, -0.5], "max": [0.5, 0.16999999999999998, 0.5]}, {"bufferView": 1, "componentType": 5126, "count": 162, "type": "VEC3"}, {"bufferView": 2, "componentType": 5126, "count": 162, "type": "VEC2"}, {"bufferView": 3, "componentType": 5123, "count": 768, "type": "SCALAR"}]}